# Blender 4.4.0
# www.blender.org
mtllib Neck.mtl
o Neck
v -0.639566 10.039392 -0.221576
v -0.593491 12.029342 -0.026704
v -0.483953 10.047437 -0.340526
v -0.437878 12.037387 -0.145654
v -0.308088 10.051835 -0.427022
v -0.262013 12.041786 -0.232150
v -0.118728 10.052418 -0.477738
v -0.072653 12.042368 -0.282866
v 0.076849 10.049161 -0.490725
v 0.122924 12.039111 -0.295853
v 0.271127 10.042191 -0.465485
v 0.317202 12.032141 -0.270613
v 0.456640 10.031775 -0.402987
v 0.502715 12.021726 -0.208115
v 0.626258 10.018314 -0.305632
v 0.672333 12.008265 -0.110761
v 0.773464 10.002325 -0.177165
v 0.819539 11.992275 0.017707
v 0.892600 9.984423 -0.022519
v 0.938676 11.974373 0.172353
v 0.979090 9.965294 0.152361
v 1.025165 11.955244 0.347233
v 1.029608 9.945675 0.340756
v 1.075683 11.935625 0.535628
v 1.042212 9.926320 0.535425
v 1.088288 11.916270 0.730297
v 1.016420 9.907971 0.728887
v 1.062495 11.897923 0.923759
v 0.953221 9.891335 0.913708
v 0.999296 11.881287 1.108580
v 0.855044 9.877052 1.082784
v 0.901120 11.867002 1.277656
v 0.725664 9.865668 1.229619
v 0.771739 11.855618 1.424491
v 0.570050 9.857623 1.348570
v 0.616126 11.847573 1.543442
v 0.394185 9.853225 1.435065
v 0.440260 11.843175 1.629937
v 0.204825 9.852642 1.485780
v 0.250900 11.842592 1.680652
v 0.009249 9.855899 1.498767
v 0.055324 11.845849 1.693639
v -0.185029 9.862869 1.473527
v -0.138953 11.852819 1.668399
v -0.370542 9.873284 1.411029
v -0.324466 11.863235 1.605901
v -0.540160 9.886745 1.313674
v -0.494085 11.876696 1.508546
v -0.687367 9.902735 1.185207
v -0.641291 11.892685 1.380079
v -0.806503 9.920637 1.030561
v -0.760428 11.910587 1.225433
v -0.892992 9.939766 0.855680
v -0.846917 11.929716 1.050552
v -0.943510 9.959385 0.667285
v -0.897434 11.949335 0.862157
v -0.956114 9.978740 0.472616
v -0.910039 11.968690 0.667488
v -0.930321 9.997088 0.279155
v -0.884246 11.987039 0.474027
v -0.867122 10.013724 0.094334
v -0.821047 12.003675 0.289206
v -0.768946 10.028008 -0.074743
v -0.722871 12.017959 0.120129
vn -0.6826 0.0869 -0.7256
vn -0.5270 0.0949 -0.8445
vn -0.3511 0.0993 -0.9310
vn -0.1618 0.0999 -0.9818
vn 0.0338 0.0966 -0.9947
vn 0.2281 0.0897 -0.9695
vn 0.4136 0.0792 -0.9070
vn 0.5832 0.0658 -0.8097
vn 0.7304 0.0498 -0.6812
vn 0.8496 0.0319 -0.5265
vn 0.9360 0.0128 -0.3517
vn 0.9866 -0.0069 -0.1633
vn 0.9992 -0.0262 0.0314
vn 0.9734 -0.0446 0.2249
vn 0.9102 -0.0612 0.4097
vn 0.8120 -0.0755 0.5788
vn 0.6826 -0.0869 0.7256
vn 0.5270 -0.0949 0.8445
vn 0.3511 -0.0993 0.9310
vn 0.1618 -0.0999 0.9818
vn -0.0338 -0.0966 0.9947
vn -0.2281 -0.0897 0.9695
vn -0.4136 -0.0792 0.9070
vn -0.5832 -0.0658 0.8097
vn -0.7304 -0.0498 0.6812
vn -0.8496 -0.0319 0.5265
vn -0.9360 -0.0128 0.3517
vn -0.9866 0.0069 0.1633
vn -0.9992 0.0262 -0.0314
vn -0.9734 0.0446 -0.2249
vn -0.9102 0.0612 -0.4097
vn 0.0230 0.9950 0.0974
vn -0.8120 0.0755 -0.5788
vn -0.0230 -0.9950 -0.0974
s 1
usemtl None
f 2//1 3//2 1//1
f 4//2 5//3 3//2
f 6//3 7//4 5//3
f 8//4 9//5 7//4
f 10//5 11//6 9//5
f 12//6 13//7 11//6
f 14//7 15//8 13//7
f 16//8 17//9 15//8
f 18//9 19//10 17//9
f 20//10 21//11 19//10
f 22//11 23//12 21//11
f 24//12 25//13 23//12
f 26//13 27//14 25//13
f 28//14 29//15 27//14
f 30//15 31//16 29//15
f 32//16 33//17 31//16
f 34//17 35//18 33//17
f 36//18 37//19 35//18
f 38//19 39//20 37//19
f 40//20 41//21 39//20
f 42//21 43//22 41//21
f 44//22 45//23 43//22
f 46//23 47//24 45//23
f 48//24 49//25 47//24
f 50//25 51//26 49//25
f 52//26 53//27 51//26
f 54//27 55//28 53//27
f 56//28 57//29 55//28
f 58//29 59//30 57//29
f 60//30 61//31 59//30
f 54//32 38//32 22//32
f 62//31 63//33 61//31
f 64//33 1//1 63//33
f 15//34 31//34 47//34
f 2//1 4//2 3//2
f 4//2 6//3 5//3
f 6//3 8//4 7//4
f 8//4 10//5 9//5
f 10//5 12//6 11//6
f 12//6 14//7 13//7
f 14//7 16//8 15//8
f 16//8 18//9 17//9
f 18//9 20//10 19//10
f 20//10 22//11 21//11
f 22//11 24//12 23//12
f 24//12 26//13 25//13
f 26//13 28//14 27//14
f 28//14 30//15 29//15
f 30//15 32//16 31//16
f 32//16 34//17 33//17
f 34//17 36//18 35//18
f 36//18 38//19 37//19
f 38//19 40//20 39//20
f 40//20 42//21 41//21
f 42//21 44//22 43//22
f 44//22 46//23 45//23
f 46//23 48//24 47//24
f 48//24 50//25 49//25
f 50//25 52//26 51//26
f 52//26 54//27 53//27
f 54//27 56//28 55//28
f 56//28 58//29 57//29
f 58//29 60//30 59//30
f 60//30 62//31 61//31
f 6//32 4//32 2//32
f 2//32 64//32 6//32
f 64//32 62//32 6//32
f 62//32 60//32 58//32
f 58//32 56//32 54//32
f 54//32 52//32 50//32
f 50//32 48//32 54//32
f 48//32 46//32 54//32
f 46//32 44//32 38//32
f 44//32 42//32 38//32
f 42//32 40//32 38//32
f 38//32 36//32 34//32
f 34//32 32//32 30//32
f 30//32 28//32 26//32
f 26//32 24//32 22//32
f 22//32 20//32 18//32
f 18//32 16//32 22//32
f 16//32 14//32 22//32
f 14//32 12//32 10//32
f 10//32 8//32 6//32
f 62//32 58//32 6//32
f 58//32 54//32 6//32
f 38//32 34//32 22//32
f 34//32 30//32 22//32
f 30//32 26//32 22//32
f 14//32 10//32 22//32
f 10//32 6//32 22//32
f 54//32 46//32 38//32
f 6//32 54//32 22//32
f 62//31 64//33 63//33
f 64//33 2//1 1//1
f 63//34 1//34 3//34
f 3//34 5//34 7//34
f 7//34 9//34 11//34
f 11//34 13//34 7//34
f 13//34 15//34 7//34
f 15//34 17//34 19//34
f 19//34 21//34 15//34
f 21//34 23//34 15//34
f 23//34 25//34 31//34
f 25//34 27//34 31//34
f 27//34 29//34 31//34
f 31//34 33//34 35//34
f 35//34 37//34 39//34
f 39//34 41//34 43//34
f 43//34 45//34 47//34
f 47//34 49//34 51//34
f 51//34 53//34 55//34
f 55//34 57//34 63//34
f 57//34 59//34 63//34
f 59//34 61//34 63//34
f 63//34 3//34 7//34
f 31//34 35//34 47//34
f 35//34 39//34 47//34
f 39//34 43//34 47//34
f 47//34 51//34 63//34
f 51//34 55//34 63//34
f 63//34 7//34 15//34
f 15//34 23//34 31//34
f 63//34 15//34 47//34
